<svg xmlns="http://www.w3.org/2000/svg" width="53" height="52" viewBox="0 0 53 52">
  <g id="All_Sections" transform="translate(-0.198 -0.443)">
    <rect id="Rectangle_9" data-name="Rectangle 9" width="53" height="52" transform="translate(0.198 0.443)" fill="none"/>
    <path id="Path_46699" data-name="Path 46699" d="M29.163,9.176h-3.27a8.176,8.176,0,1,0-16.352,0H6.27A3.28,3.28,0,0,0,3,12.446V32.068a3.28,3.28,0,0,0,3.27,3.27H29.163a3.28,3.28,0,0,0,3.27-3.27V12.446A3.28,3.28,0,0,0,29.163,9.176ZM17.717,4.27a4.9,4.9,0,0,1,4.906,4.906H12.811A4.9,4.9,0,0,1,17.717,4.27Zm11.446,27.8H6.27V12.446H29.163ZM17.717,18.987a4.9,4.9,0,0,1-4.731-3.6,1.687,1.687,0,0,0-1.6-1.307h0A1.641,1.641,0,0,0,9.8,16.124a8.179,8.179,0,0,0,15.838,0,1.641,1.641,0,0,0-1.589-2.042h0a1.687,1.687,0,0,0-1.6,1.307A4.9,4.9,0,0,1,17.717,18.987Z" transform="translate(9.481 8.774)" fill="#232f3e"/>
  </g>
</svg>
