<svg xmlns="http://www.w3.org/2000/svg" width="53" height="52" viewBox="0 0 53 52">
  <g id="Baby_Care" transform="translate(-0.102 -0.443)">
    <rect id="Rectangle_9" data-name="Rectangle 9" width="53" height="52" transform="translate(0.102 0.443)" fill="none"/>
    <path id="Union" d="M11.88,33.8A15.806,15.806,0,0,1,6.059,26.81a6.176,6.176,0,0,1,0-12.35,15.8,15.8,0,0,1,14.46-9.613L23.548,0l2.328,1.455-2.3,3.673A15.813,15.813,0,0,1,35.129,14.46a6.176,6.176,0,0,1,0,12.35A15.8,15.8,0,0,1,11.88,33.8ZM13.4,9.757a13.052,13.052,0,0,0-4.81,5.778l-.7,1.637-1.778.034a3.43,3.43,0,0,0,0,6.859l1.778.035.7,1.636a13.048,13.048,0,0,0,24.017,0l.7-1.636,1.778-.035a3.43,3.43,0,0,0,0-6.859L33.3,17.171l-.7-1.637A13.049,13.049,0,0,0,13.4,9.757ZM15.74,28.235a6.858,6.858,0,0,1-2.011-4.854H27.458A6.864,6.864,0,0,1,15.74,28.235Zm8.973-7.6V17.2h3.432v3.432Zm-11.67,0V17.2h3.432v3.432Z" transform="translate(6.59 7.689)" fill="#232f3e"/>
  </g>
</svg>
