<svg xmlns="http://www.w3.org/2000/svg" width="34" height="34" viewBox="0 0 34 34">
  <g id="Botiques" transform="translate(-2787 -1595)">
    <circle id="Ellipse_244" data-name="Ellipse 244" cx="16" cy="16" r="16" transform="translate(2788 1596)" fill="#037979" stroke="#fff" stroke-width="2"/>
    <g id="Group_47920" data-name="Group 47920" transform="translate(2794.4 1604)">
      <path id="Path_46591" data-name="Path 46591" d="M187.2,480.25a2.25,2.25,0,1,0-4.447.486,2.479,2.479,0,0,1-1.551.094,2.636,2.636,0,0,1-1.68-1.411l-.3-.609a2.25,2.25,0,1,0-3.238,0l-.3.609A2.635,2.635,0,0,1,174,480.83a2.478,2.478,0,0,1-1.551-.094,2.25,2.25,0,1,0-2.516,1.741l.9,4.523h-.585a.75.75,0,0,0,0,1.5H171v2.25a.75.75,0,0,0,.75.75h11.7a.75.75,0,0,0,.75-.75V488.5h.75a.75.75,0,0,0,0-1.5h-.585l.9-4.523a2.253,2.253,0,0,0,1.931-2.227Zm-2.25-.75a.75.75,0,1,1-.75.75.751.751,0,0,1,.75-.75Zm-7.35-3a.75.75,0,1,1-.75.75.751.751,0,0,1,.75-.75Zm-3.218,5.78a4.171,4.171,0,0,0,2.636-2.19l.3-.608a2.177,2.177,0,0,0,.555,0l.3.608a4.171,4.171,0,0,0,2.636,2.19,3.97,3.97,0,0,0,2.746-.259,2.271,2.271,0,0,0,.235.162L182.835,487h-10.47l-.964-4.818a2.277,2.277,0,0,0,.235-.162,3.97,3.97,0,0,0,2.746.259Zm-4.882-2.03a.75.75,0,1,1,.75.75.751.751,0,0,1-.75-.75ZM182.7,490H172.5v-1.5h10.2Zm0,0" transform="translate(-168 -475)" fill="#fff"/>
      <path id="Path_46592" data-name="Path 46592" d="M286.5,655.75a.75.75,0,1,1-.75-.75.75.75,0,0,1,.75.75Zm0,0" transform="translate(-279.15 -646)" fill="#fff"/>
      <path id="Path_46593" data-name="Path 46593" d="M346.5,655.75a.75.75,0,1,1-.75-.75.75.75,0,0,1,.75.75Zm0,0" transform="translate(-336.15 -646)" fill="#fff"/>
      <path id="Path_46594" data-name="Path 46594" d="M406.5,655.75a.75.75,0,1,1-.75-.75.75.75,0,0,1,.75.75Zm0,0" transform="translate(-393.15 -646)" fill="#fff"/>
    </g>
  </g>
</svg>
