<svg xmlns="http://www.w3.org/2000/svg" width="53" height="52" viewBox="0 0 53 52">
  <g id="Cosmetics" transform="translate(-0.006 -0.443)">
    <rect id="Rectangle_9" data-name="Rectangle 9" width="53" height="52" transform="translate(0.006 0.443)" fill="none"/>
    <g id="Group_48480" data-name="Group 48480" transform="translate(7.5 -4.626)">
      <path id="Path_46614" data-name="Path 46614" d="M15.682,13.193H3.039A3.043,3.043,0,0,0,0,16.232a1.5,1.5,0,0,0,.01.173L1.925,32.951h0l.864,7.466a3.04,3.04,0,0,0,1.378,2.444V47.69a1.5,1.5,0,0,0,1.5,1.5h7.38a1.5,1.5,0,0,0,1.5-1.5V42.863a3.039,3.039,0,0,0,1.378-2.444l2.779-24.014a1.53,1.53,0,0,0,.01-.173A3.043,3.043,0,0,0,15.682,13.193ZM11.547,46.186H7.174V43.357h4.374Zm3.6-25.1-.021.017-.494,4.324.014-.011-.956,8.262-.759,6.644a.032.032,0,0,1-.009.023H5.8a.032.032,0,0,1-.009-.023c0-.026,0-.052,0-.079L3.014,16.211a.033.033,0,0,1,.025-.012H15.682a.033.033,0,0,1,.025.012Z" transform="translate(0 0)" fill="#232f3e"/>
      <path id="Path_46615" data-name="Path 46615" d="M174.377,296.113l.759-6.644-.749,6.471A1.517,1.517,0,0,0,174.377,296.113Z" transform="translate(-161.45 -255.796)" fill="#232f3e"/>
      <path id="Path_46616" data-name="Path 46616" d="M252.728,171.541v-5.48a1.5,1.5,0,0,0-1.5-1.5h-8.689a1.5,1.5,0,0,0-1.5,1.5v5.48a5.4,5.4,0,0,0-4.358,5.293v7.108a5.4,5.4,0,0,0,5.394,5.394h9.622a5.4,5.4,0,0,0,5.394-5.394v-7.108A5.4,5.4,0,0,0,252.728,171.541Zm-8.689-3.977h5.682v3.876h-5.682Zm10.04,16.378a2.39,2.39,0,0,1-2.387,2.387h-9.622a2.39,2.39,0,0,1-2.387-2.387v-7.108a2.39,2.39,0,0,1,2.387-2.387h9.622a2.39,2.39,0,0,1,2.387,2.387v7.108Z" transform="translate(-219.13 -140.144)" fill="#232f3e"/>
      <path id="Path_46617" data-name="Path 46617" d="M317.2,316.385a4.575,4.575,0,1,0,4.575,4.575A4.58,4.58,0,0,0,317.2,316.385Zm0,6.144a1.569,1.569,0,1,1,1.569-1.569A1.57,1.57,0,0,1,317.2,322.529Z" transform="translate(-289.446 -280.715)" fill="#232f3e"/>
    </g>
  </g>
</svg>
