<svg xmlns="http://www.w3.org/2000/svg" width="34" height="34" viewBox="0 0 34 34">
  <g id="doctors" transform="translate(-2787 -1595)">
    <circle id="Ellipse_244" data-name="Ellipse 244" cx="16" cy="16" r="16" transform="translate(2788 1596)" fill="#037979" stroke="#fff" stroke-width="2"/>
    <g id="Group_47923" data-name="Group 47923" transform="translate(2794.667 1603.05)">
      <g id="Group_47886" data-name="Group 47886" transform="translate(0 0)">
        <path id="Path_46595" data-name="Path 46595" d="M19.779,10.133,18.394,8.55a.875.875,0,0,1-.213-.656l.193-2.09a.875.875,0,0,0-.678-.933l-2.042-.464A.875.875,0,0,1,15.1,4l-1.07-1.805a.873.873,0,0,0-1.1-.358l-1.922.826a.878.878,0,0,1-.691,0L8.394,1.837a.873.873,0,0,0-1.1.358L6.227,4a.875.875,0,0,1-.561.408l-2.039.457a.874.874,0,0,0-.68.933l.193,2.1a.876.876,0,0,1-.213.656L1.545,10.132a.873.873,0,0,0,0,1.151l1.384,1.582a.876.876,0,0,1,.213.656l-.193,2.1a.874.874,0,0,0,.677.933l2.043.464a.871.871,0,0,1,.559.408l1.07,1.81a.873.873,0,0,0,1.1.358l1.921-.83a.872.872,0,0,1,.692,0l1.921.825a.873.873,0,0,0,1.1-.358l1.07-1.805a.875.875,0,0,1,.559-.407l2.042-.464a.875.875,0,0,0,.678-.933l-.193-2.091a.878.878,0,0,1,.212-.655l1.386-1.591A.873.873,0,0,0,19.779,10.133Zm-3.407,2.808.122,1.314a.875.875,0,0,1-.678.934l-1.279.289a.873.873,0,0,0-.56.408l-.667,1.129a.874.874,0,0,1-1.1.359l-1.2-.518a.878.878,0,0,0-.693,0l-1.195.516a.874.874,0,0,1-1.1-.357l-.666-1.122a.879.879,0,0,0-.56-.407L5.515,15.2a.875.875,0,0,1-.678-.934l.122-1.32a.876.876,0,0,0-.213-.656l-.871-1a.875.875,0,0,1,0-1.148l.872-1a.875.875,0,0,0,.211-.657L4.832,7.172a.873.873,0,0,1,.677-.937l1.277-.289a.873.873,0,0,0,.56-.408l.667-1.129a.874.874,0,0,1,1.1-.359l1.2.518a.878.878,0,0,0,.693,0L12.2,4.051a.875.875,0,0,1,1.1.359l.667,1.128a.873.873,0,0,0,.56.408l1.279.289a.875.875,0,0,1,.678.934L16.363,8.48a.871.871,0,0,0,.212.656l.872,1a.873.873,0,0,1,0,1.147l-.869,1.007A.878.878,0,0,0,16.371,12.941Z" transform="translate(-1.329 -1.765)" fill="#fff"/>
        <path id="Path_46596" data-name="Path 46596" d="M9.667,13.067,8.29,11.684a.919.919,0,0,0-1.3,0h0a.918.918,0,0,0,0,1.3l2.028,2.033a.918.918,0,0,0,1.3,0l5.124-5.138a.918.918,0,0,0,0-1.3h0a.918.918,0,0,0-1.3,0Z" transform="translate(-2.005 -2.586)" fill="#fff"/>
      </g>
    </g>
  </g>
</svg>
