<svg version="1.0" id="Layer_1" xmlns="http://www.w3.org/2000/svg" x="0" y="0" viewBox="0 0 425.2 139" style="enable-background:new 0 0 425.2 139" xml:space="preserve"><style>.st34{fill:#fff}</style><linearGradient id="SVGID_1_" gradientUnits="userSpaceOnUse" x1="672.847" y1="68.518" x2="235.423" y2="68.518"><stop offset="0" style="stop-color:#e0ff9c"/><stop offset=".337" style="stop-color:#a5e083"/><stop offset=".637" style="stop-color:#77c76f"/><stop offset=".867" style="stop-color:#5bb963"/><stop offset="1" style="stop-color:#50b35f"/></linearGradient><path d="M388 15.6H118.9c-1.3 0-2.3.2-2.8.4L24.2 37h-.1c-6.6 1.6-10.7 8.2-9.2 14.8l12.9 56.3c1.3 5.7 6.3 9.6 12.1 9.6.9 0 1.8-.1 2.7-.3l8.3-1.9c3.6 3.8 8.6 6 13.9 6H388c10.8 0 19.6-8.8 19.6-19.6V35.1c0-10.8-8.8-19.5-19.6-19.5zM157.3 36.9c.9-1.2 2.4-1.7 3.4-1s1.1 2.3.2 3.5c-.9 1.2-2.4 1.7-3.4 1-1-.6-1.1-2.2-.2-3.5zm-8.5-5c.8-1.3 2.2-1.9 3.3-1.3 1 .6 1.3 2.2.5 3.5-.8 1.3-2.2 1.9-3.3 1.3-1.1-.6-1.3-2.2-.5-3.5zm10.1 50.2-11.3 6.2h-.2c-.4.2-.7.3-.9.4l-.9.3c-.8 5.8-5.1 10.8-11.1 12.2h-.1c-1 .2-2.1.4-3.2.4-5 0-9.5-2.5-12.1-6.5l-.3.1-39.5 9.1-.3.1c-.8 5.8-5.1 10.8-11.1 12.2-1.1.2-2.2.4-3.3.4-5 0-9.5-2.5-12.1-6.5l-.3.1-10.6 2.4c-.6.1-1.1.2-1.7.2-3.7 0-6.8-2.5-7.6-6.1l-13-56.3c-.9-4.2 1.7-8.4 5.8-9.3h.1L117 20.4c.4-.1 1-.2 1.8-.2 2.6 0 4.5 1.6 6.2 3.3 1.7 1.6 4.1 4.3 8.6 9.2l7.9 8.5c6.5 2.3 10.5 3.7 10.9 3.9 2.5.9 4.5 3 5.1 5.7l5.2 22.7c.9 3.4-.7 6.9-3.8 8.6zm7.9-34.7c-1.2 1-2.8 1-3.5 0-.7-.9-.4-2.5.8-3.4 1.2-1 2.8-1 3.5 0 .8.9.4 2.5-.8 3.4z" style="fill:url(#SVGID_1_)"/><linearGradient id="SVGID_2_" gradientUnits="userSpaceOnUse" x1="28.974" y1="102.393" x2="91.892" y2="102.393"><stop offset="0" style="stop-color:#e0ff9c"/><stop offset=".085" style="stop-color:#b2e788"/><stop offset=".157" style="stop-color:#91d57a"/><stop offset=".196" style="stop-color:#85cf75"/><stop offset=".21" style="stop-color:#83ce74"/><stop offset=".368" style="stop-color:#6cc26b"/><stop offset=".54" style="stop-color:#5cba64"/><stop offset=".735" style="stop-color:#53b560"/><stop offset="1" style="stop-color:#50b35f"/></linearGradient><path d="M62.6 93c-5.2 1.2-8.5 6.4-7.3 11.6 1.2 5.2 6.4 8.5 11.6 7.3 5.2-1.2 8.5-6.4 7.3-11.6-1.1-5.3-6.4-8.5-11.6-7.3z" style="fill:url(#SVGID_2_)"/><linearGradient id="SVGID_3_" gradientUnits="userSpaceOnUse" x1="183.24" y1="66.65" x2="49.007" y2="66.65"><stop offset="0" style="stop-color:#e0ff9c"/><stop offset=".039" style="stop-color:#c6f191"/><stop offset=".097" style="stop-color:#a7e184"/><stop offset=".164" style="stop-color:#8bd278"/><stop offset=".238" style="stop-color:#75c76f"/><stop offset=".325" style="stop-color:#65be68"/><stop offset=".433" style="stop-color:#59b863"/><stop offset=".584" style="stop-color:#52b460"/><stop offset="1" style="stop-color:#50b35f"/></linearGradient><path d="M152.9 51.8c-.2-1-1-1.8-1.9-2.2-.6-.2-9.5-3.4-12.1-4.3l-8.7-9.4c-10.3-11.2-10.3-11.2-12-10.8l-92 21.1c-1.6.4-2.6 2-2.2 3.6L36.9 106c.4 1.6 2 2.6 3.6 2.2l10.8-2.5c0-.1-.1-.2-.1-.3-1.7-7.5 3-14.9 10.4-16.6 7.5-1.7 14.9 3 16.6 10.4 0 .1 0 .2.1.3l39.5-9.1c0-.1-.1-.2-.1-.3-1.7-7.5 3-14.9 10.4-16.7 7.5-1.7 14.9 3 16.7 10.4v.2c.1 0 .3-.1.4-.1l11.3-6.2c1.2-.6 1.8-2 1.5-3.3l-5.1-22.6z" style="fill:url(#SVGID_3_)"/><linearGradient id="SVGID_4_" gradientUnits="userSpaceOnUse" x1="90.431" y1="87.106" x2="148.701" y2="87.106"><stop offset="0" style="stop-color:#e0ff9c"/><stop offset=".085" style="stop-color:#b2e788"/><stop offset=".157" style="stop-color:#91d57a"/><stop offset=".196" style="stop-color:#85cf75"/><stop offset=".21" style="stop-color:#83ce74"/><stop offset=".368" style="stop-color:#6cc26b"/><stop offset=".54" style="stop-color:#5cba64"/><stop offset=".735" style="stop-color:#53b560"/><stop offset="1" style="stop-color:#50b35f"/></linearGradient><path d="M129.2 77.7c-5.2 1.2-8.5 6.4-7.3 11.6 1.2 5.2 6.4 8.5 11.6 7.3 5.2-1.2 8.5-6.4 7.3-11.6-1.2-5.3-6.4-8.5-11.6-7.3z" style="fill:url(#SVGID_4_)"/><g><linearGradient id="SVGID_5_" gradientUnits="userSpaceOnUse" x1="205.09" y1="42.414" x2="212.933" y2="47.642"><stop offset="0" style="stop-color:#e0ff9c"/><stop offset=".039" style="stop-color:#c6f191"/><stop offset=".097" style="stop-color:#a7e184"/><stop offset=".164" style="stop-color:#8bd278"/><stop offset=".238" style="stop-color:#75c76f"/><stop offset=".325" style="stop-color:#65be68"/><stop offset=".433" style="stop-color:#59b863"/><stop offset=".584" style="stop-color:#52b460"/><stop offset="1" style="stop-color:#50b35f"/></linearGradient><path d="M225.3 52.9h-11.6l-2.8 8.9h13.5l-1.3 4h-18.4l9.1-29h18.3l-1.3 4.1h-13.4l-2.5 8h11.6l-1.2 4z" style="fill:url(#SVGID_5_)"/><linearGradient id="SVGID_6_" gradientUnits="userSpaceOnUse" x1="212.17" y1="31.795" x2="220.012" y2="37.023"><stop offset="0" style="stop-color:#e0ff9c"/><stop offset=".039" style="stop-color:#c6f191"/><stop offset=".097" style="stop-color:#a7e184"/><stop offset=".164" style="stop-color:#8bd278"/><stop offset=".238" style="stop-color:#75c76f"/><stop offset=".325" style="stop-color:#65be68"/><stop offset=".433" style="stop-color:#59b863"/><stop offset=".584" style="stop-color:#52b460"/><stop offset="1" style="stop-color:#50b35f"/></linearGradient><path d="m242.6 47.3 9-10.5h5.9l-13 14.6 4.3 14.4h-5.5l-2.9-10.6-9.2 10.6h-6L238.6 51l-4.2-14.2h5.4l2.8 10.5z" style="fill:url(#SVGID_6_)"/><linearGradient id="SVGID_7_" gradientUnits="userSpaceOnUse" x1="219.071" y1="21.443" x2="226.914" y2="26.671"><stop offset="0" style="stop-color:#e0ff9c"/><stop offset=".039" style="stop-color:#c6f191"/><stop offset=".097" style="stop-color:#a7e184"/><stop offset=".164" style="stop-color:#8bd278"/><stop offset=".238" style="stop-color:#75c76f"/><stop offset=".325" style="stop-color:#65be68"/><stop offset=".433" style="stop-color:#59b863"/><stop offset=".584" style="stop-color:#52b460"/><stop offset="1" style="stop-color:#50b35f"/></linearGradient><path d="m260.9 55.1-3.4 10.8h-4.9l9.1-29h10.5c1.3 0 2.6.3 3.6.7 1.1.4 2 1 2.7 1.8.7.8 1.2 1.7 1.5 2.8.3 1.1.2 2.4-.1 3.8-.4 1.6-.9 2.9-1.8 4.1-.8 1.2-1.8 2.1-3 2.9-1.1.8-2.4 1.3-3.8 1.7-1.4.4-2.8.5-4.3.5l-6.1-.1zm1.3-4.1h5.6c.8 0 1.6-.1 2.4-.3.8-.2 1.5-.5 2.1-1 .6-.4 1.2-1 1.6-1.6.5-.6.8-1.4 1.1-2.3.4-1.5.3-2.7-.3-3.6-.6-.9-1.7-1.4-3.1-1.4h-6.1L262.2 51z" style="fill:url(#SVGID_7_)"/><linearGradient id="SVGID_8_" gradientUnits="userSpaceOnUse" x1="226.841" y1="9.789" x2="234.684" y2="15.017"><stop offset="0" style="stop-color:#e0ff9c"/><stop offset=".039" style="stop-color:#c6f191"/><stop offset=".097" style="stop-color:#a7e184"/><stop offset=".164" style="stop-color:#8bd278"/><stop offset=".238" style="stop-color:#75c76f"/><stop offset=".325" style="stop-color:#65be68"/><stop offset=".433" style="stop-color:#59b863"/><stop offset=".584" style="stop-color:#52b460"/><stop offset="1" style="stop-color:#50b35f"/></linearGradient><path d="M292.1 54.7h-5.5l-3.5 11.2h-4.9l9.1-29h9.6c1.3 0 2.6.2 3.6.6 1.1.4 2 .9 2.7 1.6.7.7 1.2 1.6 1.5 2.7.3 1.1.2 2.3-.1 3.8-.2 1-.6 1.9-1 2.8-.5.8-1 1.6-1.7 2.3-.7.7-1.4 1.3-2.2 1.8-.8.5-1.7.9-2.7 1.3l2.6 12-.1.3h-5.2l-2.2-11.4zm-4.3-4.1h4.8c.8 0 1.6-.1 2.3-.3.8-.2 1.4-.5 2.1-.9.6-.4 1.2-.9 1.6-1.6.5-.6.8-1.3 1-2.2.4-1.5.3-2.7-.3-3.5-.6-.8-1.7-1.2-3.2-1.3h-5.3l-3 9.8z" style="fill:url(#SVGID_8_)"/><linearGradient id="SVGID_9_" gradientUnits="userSpaceOnUse" x1="235.348" y1="-2.972" x2="243.191" y2="2.256"><stop offset="0" style="stop-color:#e0ff9c"/><stop offset=".039" style="stop-color:#c6f191"/><stop offset=".097" style="stop-color:#a7e184"/><stop offset=".164" style="stop-color:#8bd278"/><stop offset=".238" style="stop-color:#75c76f"/><stop offset=".325" style="stop-color:#65be68"/><stop offset=".433" style="stop-color:#59b863"/><stop offset=".584" style="stop-color:#52b460"/><stop offset="1" style="stop-color:#50b35f"/></linearGradient><path d="M323.6 52.9H312l-2.8 8.9h13.5l-1.3 4H303l9.1-29h18.3l-1.3 4.1h-13.4l-2.5 8h11.6l-1.2 4z" style="fill:url(#SVGID_9_)"/><linearGradient id="SVGID_10_" gradientUnits="userSpaceOnUse" x1="242.338" y1="-13.457" x2="250.181" y2="-8.229"><stop offset="0" style="stop-color:#e0ff9c"/><stop offset=".039" style="stop-color:#c6f191"/><stop offset=".097" style="stop-color:#a7e184"/><stop offset=".164" style="stop-color:#8bd278"/><stop offset=".238" style="stop-color:#75c76f"/><stop offset=".325" style="stop-color:#65be68"/><stop offset=".433" style="stop-color:#59b863"/><stop offset=".584" style="stop-color:#52b460"/><stop offset="1" style="stop-color:#50b35f"/></linearGradient><path d="M342.8 58.2c.2-.8.2-1.4 0-2-.2-.5-.5-1-1-1.4-.4-.4-1-.7-1.6-.9-.6-.2-1.2-.5-1.8-.7-.6-.2-1.3-.5-1.9-.8-.6-.3-1.2-.6-1.8-1-.6-.4-1.1-.8-1.6-1.2-.5-.5-.8-1-1.1-1.5-.3-.6-.5-1.2-.6-1.9-.1-.7-.1-1.4.1-2.3.3-1.4.8-2.6 1.7-3.6.8-1 1.8-1.9 2.9-2.6 1.1-.7 2.3-1.2 3.7-1.5 1.3-.3 2.6-.5 3.8-.5 1.3 0 2.5.2 3.6.7 1.1.4 2 1 2.7 1.8.7.8 1.2 1.7 1.5 2.8.3 1.1.4 2.3.1 3.7h-4.9c.3-1.5.1-2.7-.6-3.6-.7-.8-1.8-1.3-3.3-1.3-.7 0-1.3.1-2 .2-.7.2-1.3.4-1.9.7-.6.3-1.1.8-1.5 1.3-.4.5-.7 1.2-.9 1.9-.1.5-.2.9-.1 1.3s.2.7.4 1 .5.6.8.8c.3.2.7.4 1 .6.4.2.7.4 1.1.5.4.1.7.3 1.1.4 1 .4 2 .8 3 1.3.9.5 1.7 1.1 2.4 1.8s1.2 1.6 1.4 2.5c.3 1 .3 2.1 0 3.4-.3 1.4-.9 2.7-1.7 3.7-.8 1-1.8 1.9-2.9 2.5-1.1.7-2.3 1.1-3.6 1.4-1.3.3-2.6.4-3.9.4-1.4 0-2.6-.2-3.8-.6-1.2-.4-2.2-1-3-1.8-.8-.8-1.4-1.7-1.8-2.9-.4-1.1-.4-2.4-.2-3.9h4.9c-.2.9-.2 1.6 0 2.2.1.6.4 1.2.8 1.6s.9.7 1.6 1c.6.2 1.4.3 2.2.4.7 0 1.3-.1 2-.2s1.3-.4 1.9-.7c.6-.3 1.1-.7 1.5-1.2.8-.4 1.1-1 1.3-1.8z" style="fill:url(#SVGID_10_)"/><linearGradient id="SVGID_11_" gradientUnits="userSpaceOnUse" x1="249.759" y1="-24.589" x2="257.602" y2="-19.36"><stop offset="0" style="stop-color:#e0ff9c"/><stop offset=".039" style="stop-color:#c6f191"/><stop offset=".097" style="stop-color:#a7e184"/><stop offset=".164" style="stop-color:#8bd278"/><stop offset=".238" style="stop-color:#75c76f"/><stop offset=".325" style="stop-color:#65be68"/><stop offset=".433" style="stop-color:#59b863"/><stop offset=".584" style="stop-color:#52b460"/><stop offset="1" style="stop-color:#50b35f"/></linearGradient><path d="M367 58.2c.2-.8.2-1.4 0-2-.2-.5-.5-1-1-1.4-.4-.4-1-.7-1.6-.9-.6-.2-1.2-.5-1.8-.7-.6-.2-1.3-.5-1.9-.8-.6-.3-1.2-.6-1.8-1-.6-.4-1.1-.8-1.6-1.2-.5-.5-.8-1-1.1-1.5-.3-.6-.5-1.2-.6-1.9-.1-.7-.1-1.4.1-2.3.3-1.4.8-2.6 1.7-3.6.8-1 1.8-1.9 2.9-2.6 1.1-.7 2.3-1.2 3.7-1.5 1.3-.3 2.6-.5 3.8-.5 1.3 0 2.5.2 3.6.7 1.1.4 2 1 2.7 1.8.7.8 1.2 1.7 1.5 2.8.3 1.1.4 2.3.1 3.7h-4.9c.3-1.5.1-2.7-.6-3.6-.7-.8-1.8-1.3-3.3-1.3-.7 0-1.3.1-2 .2-.7.2-1.3.4-1.9.7-.6.3-1.1.8-1.5 1.3-.4.5-.7 1.2-.9 1.9-.1.5-.2.9-.1 1.3s.2.7.4 1c.2.3.5.6.8.8.3.2.7.4 1 .6.4.2.7.4 1.1.5.4.1.7.3 1.1.4 1 .4 2 .8 3 1.3.9.5 1.7 1.1 2.4 1.8s1.2 1.6 1.4 2.5c.3 1 .3 2.1 0 3.4-.3 1.4-.9 2.7-1.7 3.7-.8 1-1.8 1.9-2.9 2.5-1.1.7-2.3 1.1-3.6 1.4-1.3.3-2.6.4-3.9.4-1.4 0-2.6-.2-3.8-.6-1.2-.4-2.2-1-3-1.8-.8-.8-1.4-1.7-1.8-2.9-.4-1.1-.4-2.4-.2-3.9h4.9c-.2.9-.2 1.6 0 2.2.1.6.4 1.2.8 1.6.4.4.9.7 1.6 1 .6.2 1.4.3 2.2.4.7 0 1.3-.1 2-.2s1.3-.4 1.9-.7c.6-.3 1.1-.7 1.5-1.2.7-.4 1-1 1.3-1.8z" style="fill:url(#SVGID_11_)"/></g><g><linearGradient id="SVGID_12_" gradientUnits="userSpaceOnUse" x1="183.398" y1="74.953" x2="191.24" y2="80.181"><stop offset="0" style="stop-color:#e0ff9c"/><stop offset=".039" style="stop-color:#c6f191"/><stop offset=".097" style="stop-color:#a7e184"/><stop offset=".164" style="stop-color:#8bd278"/><stop offset=".238" style="stop-color:#75c76f"/><stop offset=".325" style="stop-color:#65be68"/><stop offset=".433" style="stop-color:#59b863"/><stop offset=".584" style="stop-color:#52b460"/><stop offset="1" style="stop-color:#50b35f"/></linearGradient><path d="m193.6 101.9 8.5-27.2h8.2c1.8 0 3.4.4 4.6 1.1 1.3.7 2.3 1.7 3 2.9.7 1.2 1.2 2.6 1.3 4.1.1 1.6 0 3.2-.4 4.9l-.3 1.1c-.5 1.8-1.3 3.5-2.3 5.1-1 1.6-2.2 3-3.6 4.1-1.4 1.2-3 2.1-4.7 2.8-1.7.7-3.5 1-5.4 1h-8.9zM207 79.8l-5.4 17.1h1.9c1.2 0 2.2-.2 3.1-.7.9-.4 1.7-1 2.4-1.8.7-.7 1.3-1.6 1.8-2.6s.9-2 1.2-3l.3-1.2c.2-.5.3-1.1.4-1.7.1-.6.2-1.2.2-1.8 0-.6 0-1.1-.1-1.6s-.3-1-.5-1.4c-.3-.4-.6-.7-1.1-1-.5-.2-1-.4-1.7-.4l-2.5.1z" style="fill:url(#SVGID_12_)"/><linearGradient id="SVGID_13_" gradientUnits="userSpaceOnUse" x1="191.942" y1="62.136" x2="199.785" y2="67.365"><stop offset="0" style="stop-color:#e0ff9c"/><stop offset=".039" style="stop-color:#c6f191"/><stop offset=".097" style="stop-color:#a7e184"/><stop offset=".164" style="stop-color:#8bd278"/><stop offset=".238" style="stop-color:#75c76f"/><stop offset=".325" style="stop-color:#65be68"/><stop offset=".433" style="stop-color:#59b863"/><stop offset=".584" style="stop-color:#52b460"/><stop offset="1" style="stop-color:#50b35f"/></linearGradient><path d="M237.9 90.4h-10l-2 6.5h11.8l-1.6 5h-18.2l8.5-27.2h18.3l-1.6 5.1h-11.9l-1.8 5.7h10l-1.5 4.9z" style="fill:url(#SVGID_13_)"/><linearGradient id="SVGID_14_" gradientUnits="userSpaceOnUse" x1="196.575" y1="55.187" x2="204.418" y2="60.416"><stop offset="0" style="stop-color:#e0ff9c"/><stop offset=".039" style="stop-color:#c6f191"/><stop offset=".097" style="stop-color:#a7e184"/><stop offset=".164" style="stop-color:#8bd278"/><stop offset=".238" style="stop-color:#75c76f"/><stop offset=".325" style="stop-color:#65be68"/><stop offset=".433" style="stop-color:#59b863"/><stop offset=".584" style="stop-color:#52b460"/><stop offset="1" style="stop-color:#50b35f"/></linearGradient><path d="M246.8 96.9h11.1l-1.6 5h-17.5l8.5-27.2h6.4l-6.9 22.2z" style="fill:url(#SVGID_14_)"/><linearGradient id="SVGID_15_" gradientUnits="userSpaceOnUse" x1="202.959" y1="45.611" x2="210.802" y2="50.839"><stop offset="0" style="stop-color:#e0ff9c"/><stop offset=".039" style="stop-color:#c6f191"/><stop offset=".097" style="stop-color:#a7e184"/><stop offset=".164" style="stop-color:#8bd278"/><stop offset=".238" style="stop-color:#75c76f"/><stop offset=".325" style="stop-color:#65be68"/><stop offset=".433" style="stop-color:#59b863"/><stop offset=".584" style="stop-color:#52b460"/><stop offset="1" style="stop-color:#50b35f"/></linearGradient><path d="M266 101.9h-6.4l8.5-27.2h6.4l-8.5 27.2z" style="fill:url(#SVGID_15_)"/><linearGradient id="SVGID_16_" gradientUnits="userSpaceOnUse" x1="209.891" y1="35.213" x2="217.734" y2="40.442"><stop offset="0" style="stop-color:#e0ff9c"/><stop offset=".039" style="stop-color:#c6f191"/><stop offset=".097" style="stop-color:#a7e184"/><stop offset=".164" style="stop-color:#8bd278"/><stop offset=".238" style="stop-color:#75c76f"/><stop offset=".325" style="stop-color:#65be68"/><stop offset=".433" style="stop-color:#59b863"/><stop offset=".584" style="stop-color:#52b460"/><stop offset="1" style="stop-color:#50b35f"/></linearGradient><path d="m283.1 94.5 11.1-19.7h7.3l-17 27.2h-7l-.8-27.2h6.9l-.5 19.7z" style="fill:url(#SVGID_16_)"/><linearGradient id="SVGID_17_" gradientUnits="userSpaceOnUse" x1="215.764" y1="26.404" x2="223.607" y2="31.632"><stop offset="0" style="stop-color:#e0ff9c"/><stop offset=".039" style="stop-color:#c6f191"/><stop offset=".097" style="stop-color:#a7e184"/><stop offset=".164" style="stop-color:#8bd278"/><stop offset=".238" style="stop-color:#75c76f"/><stop offset=".325" style="stop-color:#65be68"/><stop offset=".433" style="stop-color:#59b863"/><stop offset=".584" style="stop-color:#52b460"/><stop offset="1" style="stop-color:#50b35f"/></linearGradient><path d="M315.3 90.4h-10l-2 6.5h11.8l-1.6 5h-18.2l8.5-27.2H322l-1.6 5.1h-11.9l-1.8 5.7h10l-1.4 4.9z" style="fill:url(#SVGID_17_)"/><linearGradient id="SVGID_18_" gradientUnits="userSpaceOnUse" x1="221.463" y1="17.855" x2="229.306" y2="23.084"><stop offset="0" style="stop-color:#e0ff9c"/><stop offset=".039" style="stop-color:#c6f191"/><stop offset=".097" style="stop-color:#a7e184"/><stop offset=".164" style="stop-color:#8bd278"/><stop offset=".238" style="stop-color:#75c76f"/><stop offset=".325" style="stop-color:#65be68"/><stop offset=".433" style="stop-color:#59b863"/><stop offset=".584" style="stop-color:#52b460"/><stop offset="1" style="stop-color:#50b35f"/></linearGradient><path d="M329.2 92.3h-3.6l-3 9.6h-6.4l8.5-27.2h10.1c1.2 0 2.4.2 3.5.5s2 .8 2.7 1.5c.7.7 1.2 1.5 1.6 2.5.3 1 .3 2.2 0 3.6-.4 2-1.2 3.6-2.4 4.9-1.2 1.3-2.7 2.3-4.6 3.1l2.1 10.9v.3h-6.8l-1.7-9.7zm-2-5h3.7c.6 0 1.2-.1 1.7-.3.5-.2 1-.4 1.5-.8.4-.3.8-.7 1.2-1.2.3-.5.6-1 .7-1.6.1-.5.2-1 .2-1.4 0-.4-.1-.8-.3-1.1-.2-.3-.4-.6-.8-.8-.3-.2-.8-.3-1.3-.3h-4.3l-2.3 7.5z" style="fill:url(#SVGID_18_)"/><linearGradient id="SVGID_19_" gradientUnits="userSpaceOnUse" x1="231.237" y1="3.195" x2="239.079" y2="8.423"><stop offset="0" style="stop-color:#e0ff9c"/><stop offset=".039" style="stop-color:#c6f191"/><stop offset=".097" style="stop-color:#a7e184"/><stop offset=".164" style="stop-color:#8bd278"/><stop offset=".238" style="stop-color:#75c76f"/><stop offset=".325" style="stop-color:#65be68"/><stop offset=".433" style="stop-color:#59b863"/><stop offset=".584" style="stop-color:#52b460"/><stop offset="1" style="stop-color:#50b35f"/></linearGradient><path d="m355 86.5 8.5-11.8h7.2l-14.2 17.7-2.9 9.5h-6.5l3.2-10.1-3-17.1h6.7l1 11.8z" style="fill:url(#SVGID_19_)"/></g><g><path class="st34" d="m101.6 79.5-30.3 6.7-1.5-6.6 10.7-17.8c2.6-4.7 3.6-8.2 3.1-10.5-.4-1.9-1.1-3.2-2.2-4-1-.8-2.3-1-3.9-.7-1.5.3-2.6 1.3-3.3 2.8-.7 1.5-.8 3.2-.3 5.2l-10 2.4c-.6-2.7-.5-5.3.4-7.8.8-2.5 2.3-4.7 4.4-6.5 2.1-1.8 4.6-3 7.5-3.7 4.7-1 8.5-.8 11.6.8 3 1.6 5 4.4 5.9 8.5.4 1.7.4 3.4.2 5.2-.3 1.8-.9 3.7-1.8 5.8-.9 2.1-2.6 4.9-4.9 8.6L83 75.6l17.1-3.8 1.5 7.7z"/></g><g><path class="st34" d="M105 51c.7-1.7 2-2.9 3.7-3.3 1.9-.5 3.4-.4 4.7.5 1.3.8 2.2 2.3 2.8 4.5l3 10.7-5.3 1.5-3-10.6c-.3-.9-.6-1.5-1.1-1.8-.5-.3-1.2-.4-2-.1-1.1.3-1.8.9-2 1.7l3.4 12.1-5.3 1.5-6.8-24 5.3-1.5L105 51z"/></g><g><path class="st34" d="M226.7 51.5h-11.6l-2.8 8.9h13.5l-1.3 4h-18.4l9.1-29h18.3l-1.3 4.1h-13.4l-2.5 8h11.6l-1.2 4zM244 45.9l9-10.5h5.9L246 50l4.3 14.4h-5.5l-2.9-10.6-9.2 10.6h-6L240 49.6l-4.2-14.2h5.4l2.8 10.5zM262.3 53.7l-3.4 10.8H254l9.1-29h10.5c1.3 0 2.6.3 3.6.7 1.1.4 2 1 2.7 1.8.7.8 1.2 1.7 1.5 2.8.3 1.1.2 2.4-.1 3.8-.4 1.6-.9 2.9-1.8 4.1-.8 1.2-1.8 2.1-3 2.9-1.1.8-2.4 1.3-3.8 1.7-1.4.4-2.8.5-4.3.5l-6.1-.1zm1.3-4.1h5.6c.8 0 1.6-.1 2.4-.3.8-.2 1.5-.5 2.1-1 .6-.4 1.2-1 1.6-1.6.5-.6.8-1.4 1.1-2.3.4-1.5.3-2.7-.3-3.6-.6-.9-1.7-1.4-3.1-1.4h-6.1l-3.3 10.2zM293.5 53.3H288l-3.5 11.2h-4.9l9.1-29h9.6c1.3 0 2.6.2 3.6.6 1.1.4 2 .9 2.7 1.6.7.7 1.2 1.6 1.5 2.7.3 1.1.2 2.3-.1 3.8-.2 1-.6 1.9-1 2.8-.5.8-1 1.6-1.7 2.3-.7.7-1.4 1.3-2.2 1.8-.8.5-1.7.9-2.7 1.3l2.6 12-.1.3h-5.2l-2.2-11.4zm-4.3-4.1h4.8c.8 0 1.6-.1 2.3-.3.8-.2 1.4-.5 2.1-.9.6-.4 1.2-.9 1.6-1.6.5-.6.8-1.3 1-2.2.4-1.5.3-2.7-.3-3.5-.6-.8-1.7-1.2-3.2-1.3h-5.3l-3 9.8zM325 51.5h-11.6l-2.8 8.9h13.5l-1.3 4h-18.4l9.1-29h18.3l-1.3 4.1h-13.4l-2.5 8h11.6l-1.2 4zM344.2 56.9c.2-.8.2-1.4 0-2-.2-.5-.5-1-1-1.4-.4-.4-1-.7-1.6-.9-.6-.2-1.2-.5-1.8-.7-.6-.2-1.3-.5-1.9-.8-.6-.3-1.2-.6-1.8-1-.6-.4-1.1-.8-1.6-1.2-.5-.5-.8-1-1.1-1.5-.3-.6-.5-1.2-.6-1.9-.1-.7-.1-1.4.1-2.3.3-1.4.8-2.6 1.7-3.6.8-1 1.8-1.9 2.9-2.6 1.1-.7 2.3-1.2 3.7-1.5 1.3-.3 2.6-.5 3.8-.5 1.3 0 2.5.2 3.6.7 1.1.4 2 1 2.7 1.8.7.8 1.2 1.7 1.5 2.8.3 1.1.4 2.3.1 3.7H348c.3-1.5.1-2.7-.6-3.6-.7-.8-1.8-1.3-3.3-1.3-.7 0-1.3.1-2 .2-.7.2-1.3.4-1.9.7-.6.3-1.1.8-1.5 1.3-.4.5-.7 1.2-.9 1.9-.1.5-.2.9-.1 1.3s.2.7.4 1 .5.6.8.8c.3.2.7.4 1 .6.4.2.7.4 1.1.5.4.1.7.3 1.1.4 1 .4 2 .8 3 1.3.9.5 1.7 1.1 2.4 1.8s1.2 1.6 1.4 2.5c.3 1 .3 2.1 0 3.4-.3 1.4-.9 2.7-1.7 3.7-.8 1-1.8 1.9-2.9 2.5-1.1.7-2.3 1.1-3.6 1.4-1.3.3-2.6.4-3.9.4-1.4 0-2.6-.2-3.8-.6-1.2-.4-2.2-1-3-1.8-.8-.8-1.4-1.7-1.8-2.9-.4-1.1-.4-2.4-.2-3.9h4.9c-.2.9-.2 1.6 0 2.2.1.6.4 1.2.8 1.6.4.4.9.7 1.6 1 .6.2 1.4.3 2.2.4.7 0 1.3-.1 2-.2s1.3-.4 1.9-.7c.6-.3 1.1-.7 1.5-1.2.8-.5 1.1-1.1 1.3-1.8zM368.3 56.9c.2-.8.2-1.4 0-2-.2-.5-.5-1-1-1.4-.4-.4-1-.7-1.6-.9-.6-.2-1.2-.5-1.8-.7-.6-.2-1.3-.5-1.9-.8-.6-.3-1.2-.6-1.8-1-.6-.4-1.1-.8-1.6-1.2-.5-.5-.8-1-1.1-1.5-.3-.6-.5-1.2-.6-1.9-.1-.7-.1-1.4.1-2.3.3-1.4.8-2.6 1.7-3.6.8-1 1.8-1.9 2.9-2.6 1.1-.7 2.3-1.2 3.7-1.5 1.3-.3 2.6-.5 3.8-.5 1.3 0 2.5.2 3.6.7 1.1.4 2 1 2.7 1.8.7.8 1.2 1.7 1.5 2.8.3 1.1.4 2.3.1 3.7h-4.9c.3-1.5.1-2.7-.6-3.6-.7-.8-1.8-1.3-3.3-1.3-.7 0-1.3.1-2 .2-.7.2-1.3.4-1.9.7-.6.3-1.1.8-1.5 1.3-.4.5-.7 1.2-.9 1.9-.1.5-.2.9-.1 1.3s.2.7.4 1c.2.3.5.6.8.8.3.2.7.4 1 .6.4.2.7.4 1.1.5.4.1.7.3 1.1.4 1 .4 2 .8 3 1.3.9.5 1.7 1.1 2.4 1.8s1.2 1.6 1.4 2.5c.3 1 .3 2.1 0 3.4-.3 1.4-.9 2.7-1.7 3.7-.8 1-1.8 1.9-2.9 2.5-1.1.7-2.3 1.1-3.6 1.4-1.3.3-2.6.4-3.9.4-1.4 0-2.6-.2-3.8-.6-1.2-.4-2.2-1-3-1.8-.8-.8-1.4-1.7-1.8-2.9-.4-1.1-.4-2.4-.2-3.9h4.9c-.2.9-.2 1.6 0 2.2.1.6.4 1.2.8 1.6.4.4.9.7 1.6 1 .6.2 1.4.3 2.2.4.7 0 1.3-.1 2-.2s1.3-.4 1.9-.7c.6-.3 1.1-.7 1.5-1.2.8-.5 1.1-1.1 1.3-1.8z"/></g><g><path class="st34" d="m195 100.5 8.5-27.2h8.2c1.8 0 3.4.4 4.6 1.1 1.3.7 2.3 1.7 3 2.9.7 1.2 1.2 2.6 1.3 4.1.1 1.6 0 3.2-.4 4.9l-.3 1.1c-.5 1.8-1.3 3.5-2.3 5.1-1 1.6-2.2 3-3.6 4.1-1.4 1.2-3 2.1-4.7 2.8-1.7.7-3.5 1-5.4 1H195zm13.4-22.1L203 95.5h1.9c1.2 0 2.2-.2 3.1-.7.9-.4 1.7-1 2.4-1.8.7-.7 1.3-1.6 1.8-2.6s.9-2 1.2-3l.3-1.2c.2-.5.3-1.1.4-1.7.1-.6.2-1.2.2-1.8 0-.6 0-1.1-.1-1.6s-.3-1-.5-1.4c-.3-.4-.6-.7-1.1-1-.5-.2-1-.4-1.7-.4l-2.5.1zM239.2 89h-10l-2 6.5H239l-1.6 5h-18.2l8.5-27.2H246l-1.6 5.1h-11.9l-1.8 5.7h10l-1.5 4.9zM248.2 95.5h11.1l-1.6 5h-17.5l8.5-27.2h6.4l-6.9 22.2zM267.4 100.5H261l8.5-27.2h6.4l-8.5 27.2zM284.5 93.1l11.1-19.7h7.3l-17 27.2h-7l-.8-27.2h6.9l-.5 19.7zM316.7 89h-10l-2 6.5h11.8l-1.6 5h-18.2l8.5-27.2h18.3l-1.6 5.1H310l-1.8 5.7h10l-1.5 4.9zM330.6 90.9H327l-3 9.6h-6.4l8.5-27.2h10.1c1.2 0 2.4.2 3.5.5s2 .8 2.7 1.5c.7.7 1.2 1.5 1.6 2.5.3 1 .3 2.2 0 3.6-.4 2-1.2 3.6-2.4 4.9-1.2 1.3-2.7 2.3-4.6 3.1l2.1 10.9v.3h-6.8l-1.7-9.7zm-2-5h3.7c.6 0 1.2-.1 1.7-.3.5-.2 1-.4 1.5-.8.4-.3.8-.7 1.2-1.2.3-.5.6-1 .7-1.6.1-.5.2-1 .2-1.4 0-.4-.1-.8-.3-1.1-.2-.3-.4-.6-.8-.8-.3-.2-.8-.3-1.3-.3h-4.3l-2.3 7.5zM356.4 85.1l8.5-11.8h7.2L357.9 91l-2.9 9.5h-6.5l3.2-10.1-3-17.1h6.7l1 11.8z"/></g></svg>