<svg xmlns="http://www.w3.org/2000/svg" width="53" height="52" viewBox="0 0 53 52">
  <g id="Hand_Sanitizer" transform="translate(0.379 -0.443)">
    <rect id="Rectangle_9" data-name="Rectangle 9" width="53" height="52" transform="translate(-0.379 0.443)" fill="none"/>
    <g id="Group_48483" data-name="Group 48483" transform="translate(-75.157 -75.335)">
      <path id="Path_46713" data-name="Path 46713" d="M101.778,84.227a17.563,17.563,0,0,1,12.931,5.714H112.39a1.224,1.224,0,0,0,0,2.449h4.9a1.224,1.224,0,0,0,1.225-1.224v-4.9a1.225,1.225,0,0,0-1.225-1.225h0a1.225,1.225,0,0,0-1.225,1.225V87.81a19.98,19.98,0,0,0-34.286,13.968,19.774,19.774,0,0,0,.472,4.351l2.387-.539a17.379,17.379,0,0,1-.41-3.812A17.57,17.57,0,0,1,101.778,84.227Z"/>
      <path id="Path_46714" data-name="Path 46714" d="M146.466,217.956l-2.382.567a16.493,16.493,0,0,1,.423,3.8,17.532,17.532,0,0,1-30.481,11.838h2.318a1.224,1.224,0,0,0,0-2.449h-4.876a1.252,1.252,0,0,0-.629.159,1.232,1.232,0,0,0-.617,1.087l.082,4.9a1.225,1.225,0,0,0,1.246,1.2h0a1.224,1.224,0,0,0,1.2-1.245l-.024-1.461a19.981,19.981,0,0,0,34.228-14.032A18.934,18.934,0,0,0,146.466,217.956Z" transform="translate(-25.178 -120.545)"/>
      <path id="Path_46715" data-name="Path 46715" d="M177.705,167.179a1.21,1.21,0,0,0-.782,0l-8.98,3.032a1.223,1.223,0,0,0-.833,1.159v6.823c0,8.3,9.329,12.33,9.727,12.5a1.243,1.243,0,0,0,.477.1,1.229,1.229,0,0,0,.475-.1c.4-.166,9.727-4.2,9.727-12.5V171.37a1.224,1.224,0,0,0-.833-1.159Zm7.365,11.014c0,5.719-6,9.14-7.757,10.018-1.757-.873-7.754-4.278-7.754-10.018V172.25l7.755-2.619,7.755,2.619Z" transform="translate(-75.537 -75.54)"/>
      <path id="Path_46716" data-name="Path 46716" d="M248.889,302.222h0Z" transform="translate(-147.927 -195.138)"/>
      <path id="Path_46717" data-name="Path 46717" d="M218.614,240.84a1.225,1.225,0,0,0-1.722-.191h0a1.225,1.225,0,0,0-.191,1.721l2.5,3.126a1.227,1.227,0,0,0,.888.457c.023,0,.046,0,.069,0a1.237,1.237,0,0,0,.867-.357l4.848-4.848a1.225,1.225,0,0,0,0-1.732h0a1.225,1.225,0,0,0-1.732,0l-3.882,3.88Z" transform="translate(-119.197 -138.871)"/>
    </g>
  </g>
</svg>
