<svg xmlns="http://www.w3.org/2000/svg" width="53" height="52" viewBox="0 0 53 52">
  <g id="Medical" transform="translate(0.089 -0.443)">
    <rect id="Rectangle_9" data-name="Rectangle 9" width="53" height="52" transform="translate(-0.089 0.443)" fill="none"/>
    <g id="Group_48481" data-name="Group 48481" transform="translate(-129.144 -78.432)">
      <path id="Path_46700" data-name="Path 46700" d="M164.305,169.278h-17.5a4.587,4.587,0,0,1-4.583-4.583V145.528a4.587,4.587,0,0,1,4.583-4.583h1.667a2.086,2.086,0,0,0,2.083-2.083v-2.5a1.25,1.25,0,0,1,2.5,0v2.5a4.587,4.587,0,0,1-4.583,4.583h-1.667a2.086,2.086,0,0,0-2.083,2.083v19.167a2.086,2.086,0,0,0,2.083,2.083h17.5a2.086,2.086,0,0,0,2.083-2.083V145.528a2.086,2.086,0,0,0-2.083-2.083h-1.667a4.587,4.587,0,0,1-4.583-4.583v-2.5a1.25,1.25,0,0,1,2.5,0v2.5a2.086,2.086,0,0,0,2.083,2.083h1.667a4.587,4.587,0,0,1,4.583,4.583v19.167A4.587,4.587,0,0,1,164.305,169.278Z" transform="translate(0 -43.945)"/>
      <path id="Path_46701" data-name="Path 46701" d="M198.639,93.666H187.806a2.92,2.92,0,0,1-2.917-2.917v-2.5a2.92,2.92,0,0,1,2.917-2.917h10.833a2.92,2.92,0,0,1,2.917,2.917v2.5A2.92,2.92,0,0,1,198.639,93.666Zm-10.833-5.833a.417.417,0,0,0-.417.417v2.5a.417.417,0,0,0,.417.417h10.833a.417.417,0,0,0,.417-.417v-2.5a.417.417,0,0,0-.417-.417Z" transform="translate(-37.667)"/>
      <path id="Path_46702" data-name="Path 46702" d="M167.639,258.5H143.472a1.25,1.25,0,1,1,0-2.5h24.167a1.25,1.25,0,1,1,0,2.5Z" transform="translate(0 -150.667)"/>
      <path id="Path_46703" data-name="Path 46703" d="M167.639,336.722H143.472a1.25,1.25,0,1,1,0-2.5h24.167a1.25,1.25,0,0,1,0,2.5Z" transform="translate(0 -219.722)"/>
    </g>
  </g>
</svg>
