<svg xmlns="http://www.w3.org/2000/svg" width="34" height="34" viewBox="0 0 34 34">
  <g id="Pharmacies" transform="translate(-2787 -1595)">
    <circle id="Ellipse_244" data-name="Ellipse 244" cx="16" cy="16" r="16" transform="translate(2788 1596)" fill="#037979" stroke="#fff" stroke-width="2"/>
    <path id="Path_46687" data-name="Path 46687" d="M-5.888,12.7a5.2,5.2,0,0,0-.844.07V7.812a4.9,4.9,0,0,0-4.9-4.9,4.9,4.9,0,0,0-4.9,4.9V18.018a4.9,4.9,0,0,0,4.9,4.9,4.834,4.834,0,0,0,2.838-.908,5.053,5.053,0,0,0,2.9.908A5.116,5.116,0,0,0-.778,17.8,5.115,5.115,0,0,0-5.888,12.7Zm-8.924-.638V7.812a3.187,3.187,0,0,1,3.183-3.184A3.188,3.188,0,0,1-8.445,7.812v4.246ZM-2.492,17.8a3.369,3.369,0,0,1-.468,1.718L-7.6,14.878a3.358,3.358,0,0,1,1.716-.468A3.4,3.4,0,0,1-2.492,17.8Zm-7.55,2.972a3.154,3.154,0,0,1-1.587.425,3.187,3.187,0,0,1-3.183-3.184V13.772H-9.02A5.353,5.353,0,0,0-9.5,14.2,5.082,5.082,0,0,0-11,17.8,5.045,5.045,0,0,0-10.042,20.777Zm5.871-.043a3.381,3.381,0,0,1-1.717.468,3.4,3.4,0,0,1-3.4-3.4,3.37,3.37,0,0,1,.467-1.716Z" transform="translate(2813.859 1599.085)" fill="#fff"/>
  </g>
</svg>
