<svg id="recommended" xmlns="http://www.w3.org/2000/svg" width="16.126" height="16.126" viewBox="0 0 16.126 16.126">
  <g id="Group_47966" data-name="Group 47966">
    <g id="Path_46638" data-name="Path 46638" transform="translate(-2 -2)" fill="#fc0">
      <path d="M 10.06299114227295 17.62598037719727 C 5.892741203308105 17.62598037719727 2.500001192092896 14.23324108123779 2.500001192092896 10.06299114227295 C 2.500001192092896 5.892741203308105 5.892741203308105 2.500001192092896 10.06299114227295 2.500001192092896 C 14.23324108123779 2.500001192092896 17.62598037719727 5.892741203308105 17.62598037719727 10.06299114227295 C 17.62598037719727 14.23324108123779 14.23324108123779 17.62598037719727 10.06299114227295 17.62598037719727 Z M 10.06299114227295 3.112601041793823 C 6.230531215667725 3.112601041793823 3.112601041793823 6.230531215667725 3.112601041793823 10.06299114227295 C 3.112601041793823 13.89545154571533 6.230531215667725 17.01338195800781 10.06299114227295 17.01338195800781 C 13.89545154571533 17.01338195800781 17.01338195800781 13.89545154571533 17.01338195800781 10.06299114227295 C 17.01338195800781 6.230531215667725 13.89545154571533 3.112601041793823 10.06299114227295 3.112601041793823 Z" stroke="none"/>
      <path d="M 10.06299114227295 2.000001907348633 C 14.51376152038574 2.000001907348633 18.12598037719727 5.612220764160156 18.12598037719727 10.06299114227295 C 18.12598037719727 14.51376152038574 14.51376152038574 18.12598037719727 10.06299114227295 18.12598037719727 C 5.612220764160156 18.12598037719727 2.000001907348633 14.51376152038574 2.000001907348633 10.06299114227295 C 2.000001907348633 5.612220764160156 5.612220764160156 2.000001907348633 10.06299114227295 2.000001907348633 Z M 10.06299114227295 16.51338195800781 C 13.61877059936523 16.51338195800781 16.51338195800781 13.61877059936523 16.51338195800781 10.06299114227295 C 16.51338195800781 6.507210731506348 13.61877059936523 3.612600326538086 10.06299114227295 3.612600326538086 C 6.507210731506348 3.612600326538086 3.612600326538086 6.507210731506348 3.612600326538086 10.06299114227295 C 3.612600326538086 13.61877059936523 6.507210731506348 16.51338195800781 10.06299114227295 16.51338195800781 Z" stroke="none" fill="#037979"/>
    </g>
    <g id="Path_46639" data-name="Path 46639" transform="translate(-2.968 -2.581)" fill="#fc0">
      <path d="M 13.1053409576416 14.98345947265625 C 13.09482097625732 14.98345947265625 13.08425140380859 14.98316955566406 13.07365131378174 14.98260974884033 L 13.06028175354004 14.98188972473145 L 13.04690170288086 14.98188972473145 L 8.612251281738281 14.98188972473145 C 7.998761177062988 14.98188972473145 7.499651432037354 14.48277950286865 7.499651432037354 13.86928939819336 L 7.499651432037354 9.837799072265625 L 7.499651432037354 9.82465934753418 L 7.498961448669434 9.811529159545898 C 7.490691184997559 9.654319763183594 7.551071166992188 9.505208969116211 7.668981552124023 9.391669273376465 L 7.679891586303711 9.381169319152832 L 7.690141201019287 9.370029449462891 L 11.04619598388672 5.72214412689209 L 11.22812080383301 5.904068946838379 C 11.28776073455811 5.968710422515869 11.32435512542725 6.051351070404053 11.32939147949219 6.132631778717041 L 11.32939147949219 6.239804267883301 L 10.86881160736084 8.947659492492676 L 10.76950168609619 9.531498908996582 L 11.36173152923584 9.531498908996582 L 15.06265163421631 9.531498908996582 C 15.22868156433105 9.531498908996582 15.36895179748535 9.671769142150879 15.36895179748535 9.837799072265625 L 15.36895179748535 10.48283958435059 L 15.36895179748535 10.51213932037354 L 15.37237167358398 10.54123973846436 C 15.37535095214844 10.56657981872559 15.36871147155762 10.61024951934814 15.34714126586914 10.65068912506104 L 15.33713150024414 10.66945934295654 L 15.32875156402588 10.68901920318604 L 13.63552093505859 14.63988971710205 C 13.5456714630127 14.84816932678223 13.33738136291504 14.98345947265625 13.1053409576416 14.98345947265625 Z" stroke="none"/>
      <path d="M 10.72532844543457 6.809399604797363 L 8.015801429748535 9.751829147338867 C 8.007431030273438 9.759889602661133 7.997591018676758 9.772229194641113 7.998281478881836 9.785229682922363 L 7.999661445617676 9.837799072265625 L 7.999661445617676 13.86928939819336 C 7.999661445617676 14.20134925842285 8.280191421508789 14.48188972473145 8.612251281738281 14.48188972473145 L 13.1053409576416 14.48345947265625 C 13.13662147521973 14.48345947265625 13.16603183746338 14.46589946746826 13.17594146728516 14.4429292678833 L 14.86895179748535 10.49257278442383 L 14.86895179748535 10.03149890899658 L 10.17728137969971 10.03149890899658 L 10.72532844543457 6.809399604797363 M 11.03115177154541 4.999999046325684 L 11.58750152587891 5.556349754333496 C 11.73263168334961 5.709539413452148 11.82132148742676 5.91111946105957 11.82939147949219 6.120759010314941 L 11.82939147949219 6.28201961517334 L 11.36173152923584 9.031498908996582 L 15.06265068054199 9.031498908996582 C 15.50611114501953 9.031498908996582 15.86895179748535 9.394329071044922 15.86895179748535 9.837799072265625 L 15.86895179748535 10.48283958435059 C 15.88507080078125 10.61990928649902 15.85282135009766 10.76503944396973 15.78832149505615 10.88597965240479 L 14.09509181976318 14.83684921264648 C 13.91770172119141 15.24805927276611 13.49842548370361 15.50608444213867 13.04690170288086 15.48188972473145 L 8.612251281738281 15.48188972473145 C 7.72533130645752 15.48188972473145 6.999661445617676 14.7562198638916 6.999661445617676 13.86928939819336 L 6.999661445617676 9.837799072265625 C 6.98353099822998 9.531399726867676 7.104471206665039 9.241128921508789 7.322171211242676 9.031498908996582 L 11.03115177154541 4.999999046325684 Z" stroke="none" fill="#037979"/>
    </g>
  </g>
</svg>
