<svg xmlns="http://www.w3.org/2000/svg" width="53" height="52" viewBox="0 0 53 52">
  <g id="Skin_Care" transform="translate(0.185 -0.443)">
    <rect id="Rectangle_9" data-name="Rectangle 9" width="53" height="52" transform="translate(-0.185 0.443)" fill="none"/>
    <g id="Group_48482" data-name="Group 48482" transform="translate(-75.961 -75.335)">
      <path id="Path_46704" data-name="Path 46704" d="M115.883,94.077a1.637,1.637,0,0,1-1.633,1.633H99.556a11.159,11.159,0,0,1,7.886-3.265h6.808A1.637,1.637,0,0,1,115.883,94.077Z" transform="translate(-15.738 -9.442)" fill="#fff"/>
      <path id="Path_46705" data-name="Path 46705" d="M177.778,120.889h3.265v4.9h-3.265Z" transform="translate(-84.981 -34.621)" fill="#f3f3f1"/>
      <path id="Path_46706" data-name="Path 46706" d="M102.594,222.495H86.268a4.494,4.494,0,0,1-4.49-4.49V200.046a4.494,4.494,0,0,1,4.49-4.49h16.327a4.494,4.494,0,0,1,4.49,4.49v8.163h-2.449v-8.163A2.044,2.044,0,0,0,102.594,198H86.268a2.044,2.044,0,0,0-2.041,2.041V218a2.044,2.044,0,0,0,2.041,2.041h16.327Z" transform="translate(-0.001 -100.717)"/>
      <path id="Path_46707" data-name="Path 46707" d="M139.954,159.011h-2.449v-3.265a.408.408,0,0,0-.408-.408h-9.8a.408.408,0,0,0-.408.408v3.265h-2.449v-3.265a2.86,2.86,0,0,1,2.857-2.857h9.8a2.86,2.86,0,0,1,2.857,2.857Z" transform="translate(-37.769 -62.948)"/>
      <path id="Path_46708" data-name="Path 46708" d="M167.111,124.444h2.449v4.49h-2.449Z" transform="translate(-75.538 -37.768)"/>
      <path id="Path_46709" data-name="Path 46709" d="M195.556,124.444H198v4.49h-2.449Z" transform="translate(-100.718 -37.768)"/>
      <path id="Path_46710" data-name="Path 46710" d="M99.328,87.492H83a1.224,1.224,0,0,1-.865-2.09,12.452,12.452,0,0,1,8.748-3.624h8.444a2.857,2.857,0,1,1,0,5.714Zm-8.444-3.265a9.962,9.962,0,0,0-3.926.816H99.328a.408.408,0,0,0,0-.816"/>
      <path id="Path_46711" data-name="Path 46711" d="M369.891,348.386a1.227,1.227,0,0,1-1.174-.872l-2.448-8.164a1.225,1.225,0,0,1,.821-1.525h0a1.225,1.225,0,0,1,1.525.821l1.276,4.254,1.276-4.252a1.225,1.225,0,0,1,1.525-.821h0a1.225,1.225,0,0,1,.821,1.525l-2.448,8.164A1.227,1.227,0,0,1,369.891,348.386Z" transform="translate(-251.788 -226.608)"/>
      <path id="Path_46712" data-name="Path 46712" d="M299.6,348.39h-1.633a2.857,2.857,0,0,1-2.857-2.857V339a1.224,1.224,0,0,1,1.225-1.224h0A1.224,1.224,0,0,1,297.56,339v6.531a.408.408,0,0,0,.408.408H299.6a.408.408,0,0,0,.408-.408V339a1.224,1.224,0,0,1,1.224-1.224h0A1.224,1.224,0,0,1,302.458,339v6.531A2.857,2.857,0,0,1,299.6,348.39Z" transform="translate(-188.844 -226.612)"/>
    </g>
  </g>
</svg>
